<?xml version="1.0" ?>
<!-- Uploaded to: SVG Repo, www.svgrepo.com, Generator: SVG Repo Mixer Tools -->
<svg width="800px" height="800px" viewBox="0 0 512 512" baseProfile="tiny" overflow="visible" version="1.1" xml:space="preserve" xmlns="http://www.w3.org/2000/svg" xmlns:xlink="http://www.w3.org/1999/xlink">
<g id="Layer_1"/>
<g id="Layer_2"/>
<g id="Layer_3"/>
<g id="Layer_4"/>
<g id="Layer_5"/>
<g id="Layer_6"/>
<g id="Layer_7"/>
<g id="Layer_8"/>
<g id="Layer_9"/>
<g id="Layer_10"/>
<g id="Layer_11"/>
<g id="Layer_12"/>
<g id="Layer_13"/>
<g id="Layer_14"/>
<g id="Layer_15"/>
<g id="Layer_16"/>
<g id="Layer_17"/>
<g id="Layer_18"/>
<g id="Layer_19"/>
<g id="Layer_20"/>
<g id="Layer_21"/>
<g id="Layer_22"/>
<g id="Layer_23"/>
<g id="Layer_24"/>
<g id="Layer_25"/>
<g id="Layer_26"/>
<g id="Layer_27"/>
<g id="Layer_28"/>
<g id="Layer_29"/>
<g id="Layer_30"/>
<g id="Layer_31"/>
<g id="Layer_32"/>
<g id="Layer_33"/>
<g id="Layer_34"/>
<g id="Layer_35"/>
<g id="Layer_36"/>
<g id="Layer_37"/>
<g id="Layer_38"/>
<g id="Layer_39"/>
<g id="Layer_40"/>
<g id="Layer_41"/>
<g id="Layer_42"/>
<g id="Layer_43"/>
<g id="Layer_44"/>
<g id="Layer_45"/>
<g id="Layer_46"/>
<g id="Layer_47"/>
<g id="Layer_48"/>
<g id="Layer_49"/>
<g id="Layer_50">
<g>
<path d="M464.893,298.854c47.429-38.533,39.029-39.772,39.029-39.772s7.196-4.52-51.661-20.692    c-50.019-13.743-84.505,33.283-93.734,47.718c-1.462,2.287-0.826,5.324,1.432,6.831    C374.197,302.442,424.593,331.596,464.893,298.854z" fill="#FFAAA1"/>
<path d="M304.167,193.472c16.115-59.064,20.619-51.843,20.619-51.843s1.234-8.429,39.633,39.166    c32.611,40.422,3.604,90.964-5.88,105.281c-1.506,2.274-4.562,2.914-6.854,1.437C337.261,278.219,290.482,243.627,304.167,193.472    z" fill="#FFAAA1"/>
<path d="M364.419,180.796c-38.398-47.595-39.633-39.166-39.633-39.166s-0.951-1.518-3.537,2.552    c5.374,4.342,15.204,14.345,33.17,36.614c32.279,40.011,4.191,89.931-5.582,104.827c1.046,0.714,2.004,1.348,2.847,1.891    c2.292,1.477,5.348,0.837,6.854-1.437C368.023,271.76,397.03,221.218,364.419,180.796z" fill="#FF938A"/>
<path d="M392.961,409.335c47.429-38.533,39.029-39.772,39.029-39.772s7.196-4.52-51.661-20.692    c-50.019-13.743-84.504,33.283-93.734,47.718c-1.462,2.287-0.826,5.324,1.432,6.831    C302.265,412.923,352.66,442.077,392.961,409.335z" fill="#FFAAA1"/>
<path d="M232.234,303.953c16.115-59.064,20.619-51.843,20.619-51.843s1.234-8.429,39.633,39.166    c32.611,40.422,3.604,90.964-5.88,105.281c-1.506,2.273-4.562,2.914-6.854,1.437C265.329,388.7,218.55,354.108,232.234,303.953z" fill="#FFAAA1"/>
<path d="M214.72,188.131c-8.396-60.656-13.79-54.077-13.79-54.077s-0.142-8.518-44.332,33.715    c-37.533,35.871-15.251,89.749-7.686,105.168c1.201,2.447,4.147,3.476,6.61,2.308C171.018,267.893,221.849,239.638,214.72,188.131    z" fill="#FFAAA1"/>
<path d="M41.801,271.85c-42.085-44.345-33.597-44.487-33.597-44.487s-6.556-5.413,53.888-13.839    c51.366-7.16,79.526,43.932,86.825,59.441c1.156,2.457,0.133,5.388-2.301,6.591C131.271,287.14,77.558,309.527,41.801,271.85z" fill="#FFAAA1"/>
<path d="M271.865,306.992c-8.396-60.656-13.79-54.077-13.79-54.077s-0.142-8.518-44.332,33.715    c-37.533,35.871-15.251,89.749-7.686,105.168c1.201,2.447,4.147,3.476,6.61,2.308C228.163,386.754,278.995,358.5,271.865,306.992z    " fill="#FFAAA1"/>
<path d="M98.946,390.712c-42.085-44.345-33.597-44.487-33.597-44.487s-6.556-5.413,53.888-13.839    c51.366-7.16,79.526,43.932,86.825,59.441c1.156,2.457,0.133,5.388-2.301,6.591C188.417,406.002,134.704,428.389,98.946,390.712z" fill="#FFAAA1"/>
<path d="M503.923,259.082c0,0,7.196-4.52-51.661-20.692c-8.093-2.223-15.776-2.849-23.014-2.286    c4.21,0.325,8.549,1.059,13.014,2.286c58.858,16.172,51.661,20.692,51.661,20.692s8.399,1.239-39.029,39.772    c-12.168,9.886-25.255,14.123-37.991,14.968c15.753,1.004,32.607-2.47,47.991-14.968    C512.322,260.321,503.923,259.082,503.923,259.082z" fill="#FF938A"/>
<path d="M431.99,369.563c0,0,7.196-4.52-51.661-20.692c-8.092-2.223-15.775-2.849-23.014-2.286    c4.21,0.325,8.549,1.059,13.014,2.286c58.858,16.172,51.661,20.692,51.661,20.692s8.399,1.239-39.029,39.772    c-12.168,9.886-25.255,14.123-37.991,14.968c15.753,1.004,32.607-2.47,47.991-14.968    C440.39,370.802,431.99,369.563,431.99,369.563z" fill="#FF938A"/>
<path d="M292.486,291.277c-38.399-47.595-39.633-39.166-39.633-39.166s-0.951-1.518-3.537,2.552    c5.374,4.342,15.204,14.345,33.17,36.614c32.279,40.011,4.191,89.931-5.582,104.827c1.046,0.714,2.004,1.348,2.847,1.891    c2.292,1.477,5.348,0.837,6.854-1.437C296.09,382.241,325.097,331.698,292.486,291.277z" fill="#FF938A"/>
<path d="M214.72,188.131c-8.396-60.656-13.79-54.077-13.79-54.077s-0.043-2.543-7.293,2.042    c2.385,4.396,6.233,16.999,11.083,52.035c6.638,47.951-36.955,75.746-55.509,85.287c1.335,2.084,4.023,2.912,6.311,1.826    C171.018,267.893,221.849,239.638,214.72,188.131z" fill="#FF938A"/>
<path d="M148.917,272.965c-7.077-15.036-33.765-63.521-82.199-59.933c42.128,3.145,65.625,45.966,72.199,59.933    c1.156,2.457,0.134,5.388-2.301,6.591c-8.142,4.024-27.086,12.215-48.417,13.391c25.237,1.445,49.021-8.746,58.417-13.391    C149.05,278.353,150.073,275.422,148.917,272.965z" fill="#FF938A"/>
<path d="M271.865,306.992c-8.396-60.656-13.79-54.077-13.79-54.077s-0.043-2.543-7.293,2.042    c2.385,4.396,6.233,16.999,11.083,52.035c6.638,47.952-36.955,75.746-55.509,85.287c1.335,2.084,4.023,2.912,6.311,1.826    C228.163,386.754,278.995,358.5,271.865,306.992z" fill="#FF938A"/>
<path d="M206.062,391.827c-7.077-15.036-33.765-63.521-82.199-59.933c42.128,3.145,65.625,45.966,72.199,59.933    c1.156,2.457,0.134,5.388-2.301,6.591c-8.142,4.024-27.086,12.215-48.418,13.391c25.238,1.445,49.021-8.746,58.418-13.391    C206.196,397.214,207.219,394.284,206.062,391.827z" fill="#FF938A"/>
<g>
<path d="M242.357,472.018c-1.403,0-2.822-0.393-4.085-1.216c-3.471-2.26-4.453-6.906-2.193-10.377L420.032,178.24     c2.26-3.472,6.909-4.453,10.377-2.193c3.472,2.26,4.453,6.906,2.193,10.377L248.649,468.609     C247.211,470.817,244.808,472.018,242.357,472.018z" fill="#FF938A"/>
</g>
<g>
<path d="M241.208,472.41c-2.793,0-5.474-1.567-6.765-4.252L92.133,171.496c-1.795-3.733-0.224-8.214,3.509-10.009     c3.734-1.795,8.215-0.224,10.009,3.51l142.311,296.662c1.795,3.733,0.224,8.214-3.51,10.009     C243.405,472.171,242.298,472.41,241.208,472.41z" fill="#FF938A"/>
</g>
<path d="M499.674,125.786c6.386-60.902-0.426-55.818-0.426-55.818s1.904-8.302-51.11,22.027    c-45.036,25.765-36.308,83.456-32.661,100.236c0.578,2.661,3.188,4.366,5.857,3.827    C438.132,192.663,494.252,177.507,499.674,125.786z" fill="#FFAAA1"/>
<path d="M499.248,69.968c0,0,0.613-2.693-8.666,0.601c1.594,2.439,3.531,12.89-0.907,55.217    c-4.921,46.939-51.598,63.762-72.743,69.008c1.138,1.071,2.757,1.596,4.403,1.263c16.797-3.394,72.917-18.551,78.34-70.272    C506.06,64.884,499.248,69.968,499.248,69.968z" fill="#FF938A"/>
<path d="M84.98,68.883C36.303,31.951,37.124,40.43,37.124,40.43s-6.102-5.923-7.591,55.297    c-1.264,51.988,52.436,74.276,68.661,79.816c2.579,0.881,5.388-0.475,6.304-3.041C110.271,156.327,126.327,100.254,84.98,68.883z" fill="#FFAAA1"/>
<path d="M84.98,68.883C36.303,31.951,37.124,40.43,37.124,40.43s-0.878-0.849-2.048,1.432    c6.514,3.227,18.358,10.673,39.904,27.021c41.348,31.371,25.291,87.444,19.519,103.619c-0.189,0.529-0.474,0.991-0.805,1.409    c1.703,0.653,3.219,1.195,4.501,1.633c2.579,0.881,5.388-0.475,6.304-3.041C110.271,156.327,126.327,100.254,84.98,68.883z" fill="#FF938A"/>
</g>
<g>
<g>
<g>
<path d="M420.362,207.406c-5.746,0-10.957-4.021-12.22-9.832c-3.972-18.275-13.094-80.099,36.265-108.337      c18.263-10.448,32.191-17.561,41.397-21.143c7.508-2.92,13.372-4.224,17.589-1.096c0.057,0.042,0.113,0.085,0.169,0.129      c0.049,0.026,0.099,0.054,0.147,0.082c4.562,2.595,5.732,8.496,6.084,16.557c0.433,9.895-0.465,25.557-2.666,46.553      c-5.944,56.691-66.037,73.148-84.314,76.841C421.993,207.326,421.172,207.406,420.362,207.406z M494.553,80.876      c-4.746,1.512-16.322,6.291-42.696,21.38c-38.604,22.086-33.126,71.457-29.562,89.679c18.054-4.046,65.266-18.841,69.915-63.18      l0,0c2.124-20.261,2.999-35.176,2.599-44.334C494.744,82.951,494.651,81.788,494.553,80.876z M503.728,79.73      c-0.002,0.002-0.005,0.003-0.007,0.005C503.723,79.733,503.726,79.732,503.728,79.73z M491.93,72.054      c0,0-0.001,0.001-0.001,0.002C491.929,72.055,491.93,72.055,491.93,72.054z"/>
</g>
<g>
<path d="M422.067,325.28c-29.542,0-56.134-15.582-66.277-22.352c-5.615-3.749-7.224-11.424-3.587-17.11      c10.071-15.752,47.186-65.979,102.04-50.908c20.282,5.573,35.147,10.427,44.179,14.429c7.359,3.26,12.417,6.494,13.182,11.684      c0.01,0.066,0.019,0.132,0.026,0.198c0.018,0.058,0.033,0.115,0.05,0.173c1.389,5.058-1.944,10.057-7.375,16.006      c-6.669,7.305-18.34,17.743-34.689,31.026C454.288,320.88,437.759,325.28,422.067,325.28z M366.205,291.814      c10.105,6.443,32.049,18.39,55.634,18.392c12.834,0.001,26.151-3.536,38.319-13.421l0,0      c23.707-19.26,32.325-28.342,35.421-32.203c-4.384-2.289-15.913-7.13-45.31-15.207      C407.422,237.602,376.514,276.409,366.205,291.814z M502.811,270.251c0,0,0.001,0,0.002,0      C502.812,270.251,502.811,270.251,502.811,270.251z M499.919,256.489c-0.001,0-0.001,0-0.002,0.001      C499.918,256.489,499.918,256.489,499.919,256.489z"/>
</g>
<g>
<path d="M354.342,299.544c-2.315,0-4.651-0.639-6.726-1.977c-15.682-10.105-65.688-47.349-50.69-102.319l0,0      c5.555-20.357,10.392-35.273,14.379-44.334c3.251-7.386,6.479-12.462,11.676-13.224c0.06-0.009,0.119-0.017,0.179-0.024      c0.063-0.019,0.128-0.038,0.192-0.055c5.065-1.385,10.057,1.967,15.993,7.425c7.278,6.694,17.677,18.402,30.906,34.8      c35.738,44.298,4.853,98.558-5.465,114.133C362.395,297.579,358.402,299.544,354.342,299.544z M355.742,284.96h0.01H355.742z       M311.396,199.197L311.396,199.197c-11.734,43.007,26.891,74.02,42.249,84.38c9.92-15.68,32.892-59.663,4.932-94.321      c-19.113-23.691-28.168-32.365-32.04-35.503C324.247,158.184,319.423,169.782,311.396,199.197z M318.437,149.381      C318.437,149.381,318.437,149.381,318.437,149.381C318.437,149.381,318.437,149.381,318.437,149.381z M318.429,149.367      c0.001,0.001,0.002,0.003,0.003,0.005C318.431,149.37,318.43,149.368,318.429,149.367z M318.417,149.349      c0.003,0.004,0.005,0.008,0.008,0.012C318.423,149.357,318.42,149.353,318.417,149.349z M332.2,146.479c0,0,0,0.001,0,0.002      C332.2,146.48,332.2,146.479,332.2,146.479z"/>
</g>
<g>
<path d="M350.134,435.761c-29.541,0-56.133-15.582-66.276-22.352c-5.614-3.747-7.224-11.422-3.589-17.108      c10.074-15.753,47.198-65.98,102.041-50.91c20.282,5.573,35.147,10.427,44.179,14.429c7.359,3.26,12.417,6.494,13.182,11.684      c0.01,0.066,0.019,0.132,0.026,0.198c0.018,0.058,0.033,0.115,0.05,0.173c1.389,5.058-1.944,10.057-7.375,16.006      c-6.669,7.305-18.34,17.743-34.689,31.026C382.355,431.361,365.828,435.761,350.134,435.761z M294.273,402.294      c10.105,6.443,32.05,18.39,55.634,18.391c12.835,0.001,26.151-3.535,38.319-13.421l0,0      c23.707-19.26,32.325-28.342,35.421-32.203c-4.384-2.289-15.913-7.13-45.31-15.207      C335.489,348.082,304.582,386.89,294.273,402.294z M430.878,380.732c0,0,0.001,0,0.002,0      C430.879,380.732,430.878,380.732,430.878,380.732z M427.986,366.97c-0.001,0-0.001,0-0.002,0.001      C427.985,366.97,427.985,366.97,427.986,366.97z"/>
</g>
<g>
<path d="M282.391,410.021c-2.312,0-4.645-0.637-6.711-1.969c-7.378-4.761-21.529-14.966-33.423-29.839      c-2.587-3.235-2.062-7.955,1.173-10.541c3.234-2.587,7.954-2.061,10.541,1.173c9.534,11.922,20.777,20.517,27.738,25.215      c10.902-17.255,32.541-60.105,4.937-94.321c-16.522-20.476-25.486-29.694-30.096-33.82c-0.76-0.68-1.408-1.229-1.955-1.671      c-2.001,3.489-6.424,4.789-10.007,2.894c-3.662-1.936-5.061-6.474-3.125-10.136c2.163-4.093,5.005-8.294,9.746-8.861      c2.59-0.792,5.455-0.309,8.541,1.446c1.921,1.089,4.148,2.775,6.804,5.151c7.308,6.541,17.995,18.512,31.766,35.579      c14.91,18.482,19.914,40.747,14.873,66.176c-4.012,20.238-13.627,37.436-19.002,45.887l-0.241,0.389      c-0.027,0.044-0.056,0.088-0.084,0.131l-0.564,0.866c-0.098,0.155-0.199,0.309-0.307,0.463l-0.175,0.26      C290.419,408.074,286.434,410.021,282.391,410.021z M246.5,259.859c0,0,0,0.001,0,0.001      C246.501,259.86,246.5,259.859,246.5,259.859z M246.491,259.845c0.001,0.002,0.002,0.003,0.003,0.005      C246.493,259.848,246.492,259.847,246.491,259.845z M246.48,259.827c0.002,0.004,0.005,0.008,0.007,0.012      C246.485,259.835,246.482,259.831,246.48,259.827z M260.265,256.946c0,0.001,0,0.002,0,0.002      C260.265,256.948,260.265,256.947,260.265,256.946z"/>
</g>
<g>
<path d="M242.351,475.769c-1.403,0-2.822-0.393-4.085-1.216c-3.471-2.26-4.453-6.906-2.193-10.377l174.246-267.625      c2.26-3.472,6.909-4.453,10.377-2.193c3.472,2.26,4.453,6.906,2.193,10.377L248.643,472.36      C247.206,474.568,244.803,475.769,242.351,475.769z"/>
</g>
</g>
<g>
<g>
<path d="M99.76,187.056c-1.328,0-2.675-0.214-3.994-0.665c-17.648-6.026-75.121-30.115-73.736-87.095      c0.513-21.103,1.634-36.751,3.333-46.507c1.384-7.951,3.302-13.653,8.162-15.639c0.053-0.021,0.106-0.042,0.159-0.063      c0.06-0.036,0.121-0.07,0.182-0.104c4.584-2.56,10.233-0.509,17.303,3.357c8.669,4.742,21.568,13.597,38.337,26.32      c45.317,34.383,28.334,94.506,22.049,112.115C109.743,183.854,104.897,187.056,99.76,187.056z M40.831,51.895      c-1.162,4.857-3.064,17.277-3.806,47.765c-1.083,44.569,43.835,65.35,61.222,71.7c5.872-17.608,17.644-65.855-17.806-92.752      c-16.179-12.275-28.449-20.723-36.468-25.11C42.693,52.799,41.658,52.28,40.831,51.895z M31.911,49.578L31.911,49.578      L31.911,49.578z M31.895,49.563c0.003,0.002,0.005,0.005,0.008,0.008C31.901,49.568,31.898,49.565,31.895,49.563z       M44.585,43.473C44.585,43.473,44.585,43.473,44.585,43.473C44.585,43.473,44.585,43.473,44.585,43.473z M44.584,43.457      c0,0.003,0,0.006,0.001,0.008C44.584,43.463,44.584,43.46,44.584,43.457z"/>
</g>
<g>
<path d="M153.425,286.966c-4.626,0-9.093-2.575-11.252-6.975c-8.232-16.78-31.896-74.581,9.237-113.893      c15.224-14.55,27.039-24.816,35.117-30.513c6.587-4.646,11.965-7.324,16.813-5.301c0.063,0.027,0.126,0.054,0.189,0.082      c0.057,0.015,0.113,0.03,0.169,0.045c5.054,1.424,7.604,6.872,9.878,14.616c2.791,9.5,5.673,24.919,8.567,45.826l0,0      c7.814,56.451-46.561,86.923-63.412,94.918C157.021,286.582,155.211,286.966,153.425,286.966z M198.104,145.879      c-4.241,2.61-14.333,10.04-36.33,31.062c-32.18,30.756-15.04,77.348-7.216,94.177c16.557-8.288,58.833-34.053,52.727-78.209l0,0      C203.101,162.685,199.806,150.566,198.104,145.879z M206.71,142.576c-0.001,0.001-0.002,0.002-0.002,0.003      C206.708,142.578,206.71,142.577,206.71,142.576z M206.724,142.56c-0.002,0.003-0.005,0.006-0.008,0.01      C206.718,142.567,206.721,142.563,206.724,142.56z M193.425,137.942c0,0,0,0.001,0,0.001      C193.425,137.943,193.425,137.942,193.425,137.942z"/>
</g>
<g>
<path d="M92.959,304.36c-19.107,0-39.59-5.669-56.603-23.596l0,0c-14.509-15.288-24.742-27.149-30.417-35.255      c-4.621-6.601-7.282-11.989-5.252-16.825c0.022-0.054,0.046-0.107,0.069-0.161c0.017-0.066,0.035-0.132,0.054-0.198      c1.429-5.048,6.862-7.602,14.579-9.883c9.472-2.8,24.835-5.691,45.662-8.595c56.324-7.851,86.682,46.752,94.647,63.674      c2.876,6.11,0.291,13.516-5.763,16.509C140.463,294.711,117.882,304.36,92.959,304.36z M47.235,270.438      c30.638,32.282,77.05,15.075,93.804,7.227c-8.246-16.611-33.912-59.1-77.918-52.961c-20.092,2.801-34.721,5.534-43.481,8.123      c-1.417,0.419-2.527,0.791-3.388,1.108C18.834,238.173,26.227,248.301,47.235,270.438L47.235,270.438z M8.338,238.612      c0,0-0.001,0-0.002,0C8.337,238.612,8.337,238.612,8.338,238.612z"/>
</g>
<g>
<path d="M210.571,405.828c-4.626,0-9.093-2.575-11.252-6.974c-8.233-16.781-31.896-74.582,9.238-113.894      c15.224-14.55,27.039-24.816,35.116-30.513c6.588-4.647,11.967-7.324,16.813-5.301c0.063,0.027,0.126,0.054,0.188,0.082      c0.057,0.015,0.113,0.03,0.17,0.045c5.054,1.424,7.603,6.872,9.878,14.616c2.79,9.501,5.673,24.919,8.566,45.826l0,0      c7.814,56.452-46.56,86.923-63.411,94.918C214.167,405.443,212.357,405.828,210.571,405.828z M255.25,264.741      c-4.242,2.61-14.333,10.04-36.33,31.063c-32.18,30.755-15.04,77.348-7.216,94.177c16.557-8.287,58.834-34.052,52.727-78.209l0,0      C260.247,281.547,256.952,269.428,255.25,264.741z M263.855,261.439 M263.87,261.421c-0.002,0.003-0.005,0.006-0.008,0.01      C263.865,261.428,263.868,261.425,263.87,261.421z M250.571,256.803c0,0.001,0,0.001,0,0.002      C250.571,256.804,250.571,256.804,250.571,256.803z"/>
</g>
<g>
<path d="M150.105,423.222c-19.107,0-39.59-5.67-56.603-23.596c-14.509-15.287-24.742-27.149-30.417-35.255      c-4.621-6.601-7.283-11.989-5.252-16.826c0.022-0.054,0.046-0.107,0.069-0.16c0.017-0.066,0.035-0.132,0.054-0.199      c1.429-5.048,6.862-7.602,14.58-9.883c9.472-2.8,24.834-5.691,45.661-8.595c56.32-7.85,86.682,46.752,94.647,63.674      c2.876,6.111,0.29,13.517-5.764,16.509C197.607,413.573,175.027,423.221,150.105,423.222z M73.39,352.783      c2.575,4.23,9.956,14.353,30.99,36.516l0,0c13.56,14.288,30.216,18.881,46.017,18.883c19.9,0.001,38.448-7.282,47.788-11.656      c-8.246-16.61-33.909-59.099-77.918-52.961C90.093,347.771,78.035,351.081,73.39,352.783z M65.484,357.474      c-0.001,0-0.001,0-0.002,0C65.482,357.474,65.483,357.474,65.484,357.474z M70.128,344.2c0,0,0.001,0.001,0.001,0.001      C70.129,344.201,70.129,344.2,70.128,344.2z"/>
</g>
<g>
<path d="M241.203,476.16c-2.793,0-5.474-1.567-6.765-4.252L96.01,183.983c-1.795-3.733-0.224-8.214,3.509-10.009      c3.734-1.795,8.215-0.224,10.009,3.51l138.428,287.925c1.795,3.733,0.224,8.214-3.51,10.009      C243.4,475.922,242.292,476.16,241.203,476.16z"/>
</g>
</g>
</g>
</g>
</svg>