<svg width="28" height="28" viewBox="0 0 28 28" fill="none" xmlns="http://www.w3.org/2000/svg">
<path d="M12.6665 0.666504C19.2905 0.666504 24.6665 6.0425 24.6665 12.6665C24.6665 19.2905 19.2905 24.6665 12.6665 24.6665C6.0425 24.6665 0.666504 19.2905 0.666504 12.6665C0.666504 6.0425 6.0425 0.666504 12.6665 0.666504ZM12.6665 21.9998C17.8225 21.9998 21.9998 17.8225 21.9998 12.6665C21.9998 7.50917 17.8225 3.33317 12.6665 3.33317C7.50917 3.33317 3.33317 7.50917 3.33317 12.6665C3.33317 17.8225 7.50917 21.9998 12.6665 21.9998ZM23.9798 22.0945L27.7518 25.8652L25.8652 27.7518L22.0945 23.9798L23.9798 22.0945Z" fill="white"/>
</svg>
