<svg width="22" height="29" viewBox="0 0 22 29" fill="none" xmlns="http://www.w3.org/2000/svg">
<path d="M0.333496 28.3335C0.333496 25.5045 1.4573 22.7914 3.45769 20.791C5.45808 18.7906 8.17119 17.6668 11.0002 17.6668C13.8291 17.6668 16.5422 18.7906 18.5426 20.791C20.543 22.7914 21.6668 25.5045 21.6668 28.3335H19.0002C19.0002 26.2118 18.1573 24.1769 16.657 22.6766C15.1567 21.1763 13.1219 20.3335 11.0002 20.3335C8.87843 20.3335 6.8436 21.1763 5.34331 22.6766C3.84302 24.1769 3.00016 26.2118 3.00016 28.3335H0.333496ZM11.0002 16.3335C6.58016 16.3335 3.00016 12.7535 3.00016 8.3335C3.00016 3.9135 6.58016 0.333496 11.0002 0.333496C15.4202 0.333496 19.0002 3.9135 19.0002 8.3335C19.0002 12.7535 15.4202 16.3335 11.0002 16.3335ZM11.0002 13.6668C13.9468 13.6668 16.3335 11.2802 16.3335 8.3335C16.3335 5.38683 13.9468 3.00016 11.0002 3.00016C8.0535 3.00016 5.66683 5.38683 5.66683 8.3335C5.66683 11.2802 8.0535 13.6668 11.0002 13.6668Z" fill="white"/>
</svg>
